<svg width="71" height="37" viewBox="0 0 71 37" fill="none" xmlns="http://www.w3.org/2000/svg">
<path d="M70.7467 25.8673H68.1133C59.0033 9.71081 36.9392 19.3904 40.9963 36.0319H36.2721V31.6147H35.0177V36.0319H30.5468V31.5746H24.7553V36.0319H20.5116V31.5613H18.9902V36.0319H14.7065V31.5746H11.7304V36.0319H0C0 9.14677 25.4495 -4.5814 46.4281 1.41963C46.6837 0.752237 47.2909 0.260326 48.2026 0C49.0604 0.473119 49.6772 1.31545 49.9837 2.632C50.6375 2.89536 51.285 3.1789 51.925 3.48372C51.925 3.48372 53.0868 2.30866 54.7148 2.32221C55.5423 3.52324 55.529 5.47541 55.529 5.47541C62.1327 9.6677 67.6319 16.3732 70.7467 25.8673Z" fill="#FC5252"/>
<path d="M52.5616 10.9917C52.5616 12.9964 50.9363 14.6216 48.9317 14.6216C46.927 14.6216 45.3018 12.9964 45.3018 10.9917C45.3018 8.98706 46.927 7.36182 48.9317 7.36182C50.9363 7.36182 52.5616 8.98706 52.5616 10.9917Z" fill="#F9FFFF"/>
<path d="M51.7076 12.0595C51.7076 12.8261 51.0861 13.4473 50.3198 13.4473C49.5532 13.4473 48.9316 12.8261 48.9316 12.0595C48.9316 11.2932 49.5532 10.6716 50.3198 10.6716C51.0861 10.6716 51.7076 11.2932 51.7076 12.0595Z" fill="#FC5252"/>
</svg>
