<svg width="44" height="64" viewBox="0 0 44 64" fill="none" xmlns="http://www.w3.org/2000/svg">
<path d="M22 64C16.1672 63.9934 10.5752 61.6493 6.45081 57.482C2.32642 53.3146 0.00648558 47.6643 0 41.7707V30.7475C-2.8741e-07 30.3089 0.172309 29.8882 0.479074 29.5779C0.785839 29.2676 1.20197 29.093 1.63605 29.0925H9.43934L9.41295 3.5722L3.2721 7.39072V21.922C3.2721 22.3605 3.09974 22.7809 2.79292 23.091C2.4861 23.401 2.06996 23.5751 1.63605 23.5751C1.20214 23.5751 0.786008 23.401 0.479189 23.091C0.172369 22.7809 0 22.3605 0 21.922V7.20217C0.00123757 6.69478 0.130484 6.19609 0.375528 5.75321C0.620572 5.31034 0.973321 4.9379 1.40045 4.67109L8.20288 0.441204C8.64849 0.163936 9.15925 0.0118569 9.68246 0.00066565C10.2057 -0.0105256 10.7223 0.119576 11.1792 0.377542C11.636 0.635507 12.0164 1.01199 12.2811 1.46812C12.5458 1.92425 12.6853 2.44351 12.6851 2.97228L12.7133 29.0925H22C24.4817 29.0921 26.9078 29.8353 28.9715 31.2282C31.0352 32.6211 32.6437 34.601 33.5937 36.9176C34.5437 39.2342 34.7924 41.7835 34.3085 44.2429C33.8246 46.7024 32.6297 48.9616 30.8749 50.7349C29.1202 52.5082 26.8845 53.7159 24.4505 54.2052C22.0164 54.6945 19.4935 54.4436 17.2006 53.4841C14.9078 52.5245 12.948 50.8995 11.5692 48.8146C10.1904 46.7296 9.45442 44.2783 9.45442 41.7707L9.44311 32.4006H3.2721V41.7707C3.2721 45.5133 4.37048 49.1719 6.42832 52.2838C8.48617 55.3957 11.4111 57.8211 14.8331 59.2534C18.2552 60.6856 22.0208 61.0603 25.6536 60.3302C29.2865 59.6 32.6235 57.7978 35.2426 55.1514C37.8618 52.5049 39.6454 49.1331 40.368 45.4624C41.0907 41.7917 40.7198 37.9869 39.3023 34.5292C37.8848 31.0714 35.4844 28.116 32.4047 26.0367C29.3249 23.9574 25.704 22.8476 22 22.8476H19.1614C18.7275 22.8476 18.3114 22.6735 18.0045 22.3634C17.6977 22.0534 17.5254 21.6329 17.5254 21.1945C17.5254 20.7561 17.6977 20.3356 18.0045 20.0256C18.3114 19.7156 18.7275 19.5414 19.1614 19.5414H22C27.8348 19.5414 33.4305 21.8834 37.5564 26.0522C41.6822 30.221 44 35.8751 44 41.7707C44 47.6663 41.6822 53.3204 37.5564 57.4892C33.4305 61.658 27.8348 64 22 64ZM12.7171 32.4006V41.7688C12.7167 43.6221 13.2603 45.4339 14.279 46.9751C15.2978 48.5162 16.746 49.7175 18.4405 50.427C20.1349 51.1365 21.9996 51.3224 23.7986 50.961C25.5976 50.5997 27.2501 49.7074 28.5472 48.3971C29.8444 47.0867 30.7278 45.4171 31.0857 43.5994C31.4437 41.7817 31.2602 39.8976 30.5583 38.1854C29.8565 36.4731 28.6679 35.0095 27.1428 33.9799C25.6178 32.9502 23.8248 32.4006 21.9906 32.4006H12.7171Z" fill="#3E3EDF"/>
</svg>
