<svg width="78" height="76" viewBox="0 0 78 76" fill="none" xmlns="http://www.w3.org/2000/svg">
<path fill-rule="evenodd" clip-rule="evenodd" d="M38.5 0C17.2386 0 0 17.4466 0 38.9646C0 56.179 11.0291 70.7867 26.3297 75.9355C28.255 76.2968 28.9627 75.0902 28.9627 74.0579C28.9627 73.1288 28.9244 70.0576 28.9117 66.8057C18.2013 69.1607 15.9444 62.2117 15.9444 62.2117C14.1913 57.7081 11.673 56.508 11.673 56.508C8.17942 54.0885 11.9344 54.1401 11.9344 54.1401C15.7978 54.4175 17.8379 58.1533 17.8379 58.1533C21.2741 64.1087 26.8461 62.3859 29.0392 61.3923C29.3834 58.876 30.3843 57.1532 31.4809 56.179C22.9317 55.1918 13.9426 51.8496 13.9426 36.9257C13.9426 32.6737 15.4472 29.196 17.908 26.4668C17.5064 25.486 16.1931 21.5244 18.2778 16.1562C18.2778 16.1562 21.51 15.111 28.867 20.1501C31.9399 19.2855 35.2295 18.8532 38.5064 18.8403C41.7769 18.8532 45.0729 19.2855 48.1521 20.1501C55.5027 15.111 58.7286 16.1562 58.7286 16.1562C60.8261 21.5244 59.5064 25.486 59.1047 26.4668C61.572 29.196 63.0638 32.6737 63.0638 36.9257C63.0638 51.8883 54.0556 55.1853 45.4873 56.1532C46.8707 57.3597 48.1011 59.7341 48.1011 63.3667C48.1011 68.58 48.0565 72.7739 48.0565 74.0579C48.0565 75.0967 48.7514 76.3097 50.7022 75.929C65.99 70.7737 77.0064 56.1725 77.0064 38.9646C77 17.4466 59.7614 0 38.5 0Z" fill="white"/>
</svg>
