<svg width="41" height="61" viewBox="0 0 41 61" fill="none" xmlns="http://www.w3.org/2000/svg">
<path d="M20.2715 30.4071C20.2715 27.7189 21.3393 25.1409 23.2401 23.2401C25.1409 21.3393 27.7189 20.2715 30.4071 20.2715C33.0952 20.2715 35.6732 21.3393 37.574 23.2401C39.4748 25.1409 40.5426 27.7189 40.5426 30.4071C40.5426 33.0952 39.4748 35.6732 37.574 37.574C35.6732 39.4748 33.0952 40.5426 30.4071 40.5426C27.7189 40.5426 25.1409 39.4748 23.2401 37.574C21.3393 35.6732 20.2715 33.0952 20.2715 30.4071Z" fill="#1ABCFE"/>
<path d="M0 50.6776C0 47.9894 1.06785 45.4114 2.96864 43.5106C4.86943 41.6098 7.44745 40.542 10.1356 40.542H20.2711V50.6776C20.2711 53.3657 19.2033 55.9437 17.3025 57.8445C15.4017 59.7453 12.8237 60.8131 10.1356 60.8131C7.44745 60.8131 4.86943 59.7453 2.96864 57.8445C1.06785 55.9437 0 53.3657 0 50.6776H0Z" fill="#0ACF83"/>
<path d="M20.2715 0V20.2711H30.4071C33.0952 20.2711 35.6732 19.2033 37.574 17.3025C39.4748 15.4017 40.5426 12.8237 40.5426 10.1356C40.5426 7.44745 39.4748 4.86943 37.574 2.96864C35.6732 1.06785 33.0952 0 30.4071 0L20.2715 0Z" fill="#FF7262"/>
<path d="M0 10.1356C0 12.8237 1.06785 15.4017 2.96864 17.3025C4.86943 19.2033 7.44745 20.2711 10.1356 20.2711H20.2711V0H10.1356C7.44745 0 4.86943 1.06785 2.96864 2.96864C1.06785 4.86943 0 7.44745 0 10.1356H0Z" fill="#F24E1E"/>
<path d="M0 30.4071C0 33.0952 1.06785 35.6732 2.96864 37.574C4.86943 39.4748 7.44745 40.5426 10.1356 40.5426H20.2711V20.2715H10.1356C7.44745 20.2715 4.86943 21.3393 2.96864 23.2401C1.06785 25.1409 0 27.7189 0 30.4071H0Z" fill="#A259FF"/>
</svg>
