<svg width="73" height="48" viewBox="0 0 73 48" fill="none" xmlns="http://www.w3.org/2000/svg">
<path d="M59.376 0.410082C44.1095 -0.153589 28.835 -0.137468 13.5764 0.466465C8.8314 5.23345 4.30857 10.0569 0 14.9286C13.5447 25.5176 25.7325 36.5897 36.5397 48C47.3231 36.5575 59.487 25.4532 73 14.832C68.6834 9.97636 64.1448 5.16912 59.376 0.410082ZM7.29992 14.4938C10.1871 11.344 13.1341 8.2513 16.1394 5.2174C29.7008 4.73427 43.2744 4.71816 56.8369 5.16912C59.855 8.19209 62.8152 11.274 65.7158 14.4132C55.1071 23.0616 45.3791 31.9918 36.5318 41.1474C27.6686 32.0159 17.9168 23.1099 7.3 14.4938H7.29992ZM58.4078 14.1073C50.6238 20.6861 43.3238 27.4261 36.5237 34.2867C29.7078 27.4421 22.3919 20.7183 14.592 14.1636C15.9171 12.7706 17.266 11.3855 18.6308 10.0006C23.1377 9.85558 27.6526 9.76703 32.1596 9.72677C33.6173 11.0458 35.0641 12.3772 36.5 13.7207C37.9204 12.3841 39.3644 11.0474 40.8324 9.71875C43.3001 9.73479 45.7678 9.76703 48.2356 9.81532C44.1888 13.3584 40.2849 16.9498 36.5159 20.5734C34.1355 18.2865 31.6995 16.0238 29.208 13.7691C28.0178 14.9286 26.8434 16.0962 25.6849 17.2638C29.3745 20.5717 32.991 23.9627 36.5317 27.4341C42.34 21.7169 48.4894 16.0882 54.9801 10.5643C56.1307 11.7399 57.2733 12.9236 58.4079 14.1073H58.4078Z" fill="#4543EA"/>
</svg>
