<svg width="108" height="49" viewBox="0 0 108 49" fill="none" xmlns="http://www.w3.org/2000/svg">
<path d="M67.1131 19.2241H67.0501C66.8194 19.955 66.3494 20.5866 65.7162 21.0167C65.0829 21.4469 64.3234 21.6504 63.5604 21.5944C59.8278 21.5944 58.3438 18.4851 58.3438 12.9963C58.3438 5.90332 60.8351 4.80377 63.2636 4.80377C64.0255 4.76795 64.7798 4.96858 65.4237 5.37828C66.0676 5.78798 66.5696 6.3868 66.8613 7.093H66.9242V0H70.1531V21.1799H67.1131V19.2241ZM64.208 7.35437C62.4091 7.35437 61.7256 8.84147 61.7256 13.1405C61.7256 16.7456 62.1933 19.0438 64.4238 19.0438C66.6544 19.0438 67.1221 16.7907 67.1221 13.3839C67.1221 9.55347 66.6724 7.35437 64.217 7.35437" fill="white"/>
<path d="M83.952 17.8638C83.952 18.4496 84.3117 18.9904 84.7794 18.9904C84.9633 18.9937 85.1462 18.9631 85.3191 18.9003V20.9732C84.8282 21.2139 84.2914 21.346 83.7451 21.3607C82.324 21.3607 81.1458 20.7929 81.0468 19.2518H80.9839C80.6288 19.9922 80.0622 20.6102 79.356 21.0274C78.6498 21.4446 77.8359 21.6422 77.0174 21.5951C74.4721 21.5951 72.8711 20.171 72.8711 17.0887C72.8711 13.5287 74.4091 12.7896 76.5767 12.0776L79.0591 11.3927C80.2104 11.0682 80.9209 10.7438 80.9209 9.34679C80.9209 7.94982 80.4262 6.97644 78.7353 6.97644C76.6037 6.97644 76.3069 8.49058 76.3069 10.0318H73.2938C73.2938 6.65199 74.6879 4.77734 78.8882 4.77734C81.7034 4.77734 83.952 5.87689 83.952 8.69787V17.8638ZM80.9479 12.7536C80.1204 13.4115 78.3486 13.7991 77.3502 14.2407C76.9056 14.4955 76.5457 14.8758 76.3154 15.3341C76.0851 15.7925 75.9945 16.3087 76.055 16.8183C76.055 18.1522 76.7026 19.2247 78.0338 19.2247C79.9585 19.2247 80.9029 17.7737 80.9029 15.4304L80.9479 12.7536Z" fill="white"/>
<path d="M86.082 5.21876H88.2766V0.712402H91.4696V5.21876H94.0779V7.59811H91.4696V17.1155C91.4696 18.3683 91.8203 18.8099 92.9176 18.8099C93.3064 18.8187 93.6951 18.7885 94.0779 18.7198V21.0901C93.2319 21.2866 92.3648 21.3775 91.4965 21.3605C89.3379 21.3605 88.2766 20.7657 88.2766 17.5031V7.5891H86.082V5.21876Z" fill="white"/>
<path d="M106.482 17.8638C106.482 18.4496 106.833 18.9904 107.309 18.9904C107.491 18.9947 107.671 18.9641 107.84 18.9003V20.9732C107.352 21.214 106.819 21.3462 106.275 21.3607C104.854 21.3607 103.667 20.7929 103.577 19.2518H103.514C103.16 19.9929 102.593 20.6116 101.887 21.029C101.181 21.4463 100.366 21.6434 99.5475 21.5951C97.0021 21.5951 95.4102 20.1711 95.4102 17.0887C95.4102 13.5287 96.9482 12.7896 99.1068 12.0776L101.598 11.3927C102.749 11.0682 103.46 10.7438 103.46 9.34679C103.46 7.94982 102.956 6.97645 101.265 6.97645C99.1338 6.97645 98.8369 8.49058 98.8369 10.0318H95.8239C95.8239 6.65199 97.209 4.77734 101.418 4.77734C104.224 4.77734 106.482 5.87689 106.482 8.69787V17.8638ZM103.433 12.7536C102.606 13.4115 100.825 13.7991 99.8353 14.2407C99.3899 14.4951 99.0288 14.875 98.797 15.3333C98.5651 15.7915 98.4727 16.3079 98.5311 16.8183C98.5311 18.1522 99.1877 19.2247 100.519 19.2247C102.444 19.2247 103.388 17.7737 103.388 15.4304L103.433 12.7536Z" fill="white"/>
<path d="M59.1191 26.8491H62.3121V30.0576H59.1191V26.8491ZM59.1191 32.3108H62.3121V48.2723H59.1191V32.3108Z" fill="white"/>
<path d="M65.8379 27.0918H69.0308V38.9886H69.0938L73.9237 32.3102L77.6203 32.2831L72.8264 38.4478L78.2409 48.2717H74.7512L70.8387 40.9984L69.0308 43.1975V48.2717H65.8379V27.0918Z" fill="white"/>
<path d="M87.9816 46.3974H87.8916C87.4794 47.1117 86.8825 47.7014 86.1638 48.1042C85.4452 48.5071 84.6314 48.7083 83.8082 48.6866C81.4338 48.6866 79.8418 47.5871 79.8418 43.4683V32.3105H83.0347V43.7657C83.0347 45.5682 83.8352 46.1451 85.1934 46.1451C85.548 46.1616 85.9021 46.1022 86.2321 45.9709C86.562 45.8396 86.8603 45.6394 87.1071 45.3836C87.3538 45.1278 87.5434 44.8223 87.6632 44.4874C87.7829 44.1525 87.8302 43.7959 87.8017 43.4412V32.3105H90.9946V48.272H87.9816V46.3974Z" fill="white"/>
<path d="M24.2844 0C19.4814 0 14.7862 1.42718 10.7927 4.10107C6.79916 6.77496 3.68657 10.5755 1.84855 15.022C0.0105221 19.4685 -0.470389 24.3613 0.466628 29.0817C1.40365 33.8021 3.71651 38.1381 7.11273 41.5413C10.509 44.9445 14.836 47.2621 19.5467 48.201C24.2574 49.14 29.1402 48.6581 33.5776 46.8163C38.015 44.9745 41.8077 41.8555 44.4761 37.8537C47.1445 33.852 48.5687 29.1472 48.5687 24.3343C48.5687 17.8805 46.0102 11.6909 41.456 7.12735C36.9018 2.56379 30.725 0 24.2844 0ZM37.5058 31.1479H25.3097V29.2553H37.5058V31.1479ZM35.9768 13.4109C35.9768 13.4109 35.1494 14.5105 35.5901 17.4576C36.4175 22.9824 33.5214 27.9033 28.3947 27.9033H24.6261C24.6261 27.9033 20.9205 27.7141 18.69 29.9492C12.0882 36.5736 10.5052 38.286 10.0375 38.5383C9.73174 38.7006 9.65979 38.3491 9.65979 38.3491L29.1772 14.2311C29.09 13.4183 29.2811 12.5999 29.719 11.9103C30.157 11.2206 30.8159 10.7005 31.5876 10.4354C32.3593 10.1703 33.198 10.1759 33.9661 10.4513C34.7342 10.7266 35.3862 11.2554 35.8149 11.9509L37.6138 11.4461L35.9768 13.4109Z" fill="white"/>
<path d="M32.7741 12.1671C32.6405 12.1541 32.5056 12.1693 32.3782 12.2116C32.2508 12.2539 32.1337 12.3225 32.0343 12.4129C31.9349 12.5033 31.8555 12.6135 31.8012 12.7365C31.7468 12.8595 31.7188 12.9925 31.7188 13.127C31.7188 13.2615 31.7468 13.3945 31.8012 13.5174C31.8555 13.6404 31.9349 13.7506 32.0343 13.841C32.1337 13.9314 32.2508 14 32.3782 14.0423C32.5056 14.0846 32.6405 14.0998 32.7741 14.0868C33.0121 14.0637 33.233 13.9526 33.3937 13.7751C33.5545 13.5977 33.6435 13.3666 33.6435 13.127C33.6435 12.8873 33.5545 12.6563 33.3937 12.4788C33.233 12.3014 33.0121 12.1902 32.7741 12.1671Z" fill="white"/>
</svg>
