<svg width="1611" height="605" viewBox="0 0 1611 605" fill="none" xmlns="http://www.w3.org/2000/svg">
<path d="M929.105 19.0049L930.459 28.2485L939.703 29.5235L930.459 30.8782L929.105 40.1218L926.953 30.8782L918.586 29.5235L926.953 28.2485L929.105 19.0049Z" fill="#9BD0EF" fill-opacity="0.3"/>
<path d="M1599.57 349.485L1600.92 358.729L1610.17 360.004L1600.92 361.359L1599.57 370.602L1597.42 361.359L1589.05 360.004L1597.42 358.729L1599.57 349.485Z" fill="#9BD0EF" fill-opacity="0.3"/>
<path d="M1536.76 24.2842L1537.51 29.3682L1542.59 30.0694L1537.51 30.8145L1536.76 35.8985L1535.58 30.8145L1530.98 30.0694L1535.58 29.3682L1536.76 24.2842Z" fill="#9BD0EF" fill-opacity="0.3"/>
<path d="M5.25931 266.073L5.93665 270.695L10.5585 271.333L5.93665 272.01L5.25931 276.632L4.18354 272.01L0 271.333L4.18354 270.695L5.25931 266.073Z" fill="#9BD0EF" fill-opacity="0.3"/>
<path d="M94.4719 591.273L95.3524 597.282L101.361 598.111L95.3524 598.991L94.4719 604.999L93.0734 598.991L87.6348 598.111L93.0734 597.282L94.4719 591.273Z" fill="#9BD0EF" fill-opacity="0.3"/>
<path d="M148.957 70.3342L144.673 77.4139L150.271 83.4945L143.191 79.2107L137.056 84.7635L140.795 77.2348L135.842 71.5937L142.277 75.4379L148.957 70.3342Z" fill="#9BD0EF" fill-opacity="0.3"/>
<path d="M199.827 355.82L200.368 359.518L204.066 360.028L200.368 360.57L199.827 364.267L198.966 360.57L195.619 360.028L198.966 359.518L199.827 355.82Z" fill="#9BD0EF" fill-opacity="0.3"/>
<path opacity="0.5" d="M479.314 0L480.668 9.24364L489.912 10.5186L480.668 11.8733L479.314 21.1169L477.162 11.8733L468.795 10.5186L477.162 9.24364L479.314 0Z" fill="#9BD0EF" fill-opacity="0.3"/>
</svg>
