<svg width="1220" height="510" viewBox="0 0 1220 510" fill="none" xmlns="http://www.w3.org/2000/svg">
<g opacity="0.2" filter="url(#filter0_f_659_17097)">
<rect x="1048.67" y="438" width="36.713" height="38" rx="18.3565" fill="#FFD799"/>
</g>
<g filter="url(#filter1_d_659_17097)">
<path d="M609.059 163V164.238C609.059 170.865 614.431 176.238 621.059 176.238H1054.56C1061.19 176.238 1066.56 181.61 1066.56 188.238V452" stroke="#58B1E4" stroke-width="4"/>
</g>
<rect width="11.2963" height="12" rx="5.64815" transform="matrix(-1 0 0 1 1072.21 451)" fill="#58B1E4" stroke="#58B1E4" stroke-width="2"/>
<g opacity="0.2" filter="url(#filter2_f_659_17097)">
<rect width="36.713" height="38" rx="18.3565" transform="matrix(-1 0 0 1 169.443 438)" fill="#FFD799"/>
</g>
<g filter="url(#filter3_d_659_17097)">
<path d="M609.059 16V164.238C609.059 170.865 603.686 176.238 597.059 176.238H163.559C156.931 176.238 151.559 181.61 151.559 188.238V452" stroke="#58B1E4" stroke-width="4"/>
</g>
<rect x="1220" y="163" width="1220" height="163" transform="rotate(-180 1220 163)" fill="url(#paint0_linear_659_17097)"/>
<rect x="145.91" y="451" width="11.2963" height="12" rx="5.64815" fill="#58B1E4" stroke="#58B1E4" stroke-width="2"/>
<defs>
<filter id="filter0_f_659_17097" x="1014.67" y="404" width="104.713" height="106" filterUnits="userSpaceOnUse" color-interpolation-filters="sRGB">
<feFlood flood-opacity="0" result="BackgroundImageFix"/>
<feBlend mode="normal" in="SourceGraphic" in2="BackgroundImageFix" result="shape"/>
<feGaussianBlur stdDeviation="17" result="effect1_foregroundBlur_659_17097"/>
</filter>
<filter id="filter1_d_659_17097" x="593.059" y="149" width="489.5" height="317" filterUnits="userSpaceOnUse" color-interpolation-filters="sRGB">
<feFlood flood-opacity="0" result="BackgroundImageFix"/>
<feColorMatrix in="SourceAlpha" type="matrix" values="0 0 0 0 0 0 0 0 0 0 0 0 0 0 0 0 0 0 127 0" result="hardAlpha"/>
<feOffset/>
<feGaussianBlur stdDeviation="7"/>
<feComposite in2="hardAlpha" operator="out"/>
<feColorMatrix type="matrix" values="0 0 0 0 1 0 0 0 0 0.803922 0 0 0 0 0.482353 0 0 0 0.6 0"/>
<feBlend mode="normal" in2="BackgroundImageFix" result="effect1_dropShadow_659_17097"/>
<feBlend mode="normal" in="SourceGraphic" in2="effect1_dropShadow_659_17097" result="shape"/>
</filter>
<filter id="filter2_f_659_17097" x="98.7305" y="404" width="104.713" height="106" filterUnits="userSpaceOnUse" color-interpolation-filters="sRGB">
<feFlood flood-opacity="0" result="BackgroundImageFix"/>
<feBlend mode="normal" in="SourceGraphic" in2="BackgroundImageFix" result="shape"/>
<feGaussianBlur stdDeviation="17" result="effect1_foregroundBlur_659_17097"/>
</filter>
<filter id="filter3_d_659_17097" x="135.559" y="2" width="489.5" height="464" filterUnits="userSpaceOnUse" color-interpolation-filters="sRGB">
<feFlood flood-opacity="0" result="BackgroundImageFix"/>
<feColorMatrix in="SourceAlpha" type="matrix" values="0 0 0 0 0 0 0 0 0 0 0 0 0 0 0 0 0 0 127 0" result="hardAlpha"/>
<feOffset/>
<feGaussianBlur stdDeviation="7"/>
<feComposite in2="hardAlpha" operator="out"/>
<feColorMatrix type="matrix" values="0 0 0 0 1 0 0 0 0 0.803922 0 0 0 0 0.482353 0 0 0 0.6 0"/>
<feBlend mode="normal" in2="BackgroundImageFix" result="effect1_dropShadow_659_17097"/>
<feBlend mode="normal" in="SourceGraphic" in2="effect1_dropShadow_659_17097" result="shape"/>
</filter>
<linearGradient id="paint0_linear_659_17097" x1="1830" y1="163" x2="1830" y2="276.806" gradientUnits="userSpaceOnUse">
<stop stop-color="#0E1827" stop-opacity="0"/>
<stop offset="1" stop-color="#0E1827"/>
</linearGradient>
</defs>
</svg>
