<svg width="66" height="66" viewBox="0 0 66 66" fill="none" xmlns="http://www.w3.org/2000/svg">
<path d="M13.8104 41.3796C13.8104 45.1841 10.7356 48.2589 6.93109 48.2589C3.12661 48.2589 0.0517578 45.1841 0.0517578 41.3796C0.0517578 37.5751 3.12661 34.5002 6.93109 34.5002H13.8104V41.3796ZM17.2501 41.3796C17.2501 37.5751 20.3249 34.5002 24.1294 34.5002C27.9339 34.5002 31.0088 37.5751 31.0088 41.3796V58.5779C31.0088 62.3824 27.9339 65.4572 24.1294 65.4572C20.3249 65.4572 17.2501 62.3824 17.2501 58.5779V41.3796Z" fill="#E01E5A"/>
<path d="M24.1298 13.7587C20.3253 13.7587 17.2505 10.6838 17.2505 6.87933C17.2505 3.07485 20.3253 0 24.1298 0C27.9343 0 31.0091 3.07485 31.0091 6.87933V13.7587H24.1298ZM24.1298 17.2505C27.9343 17.2505 31.0091 20.3253 31.0091 24.1298C31.0091 27.9343 27.9343 31.0091 24.1298 31.0091H6.87933C3.07485 31.0091 0 27.9343 0 24.1298C0 20.3253 3.07485 17.2505 6.87933 17.2505H24.1298Z" fill="#36C5F0"/>
<path d="M51.6993 24.1298C51.6993 20.3253 54.7742 17.2505 58.5786 17.2505C62.3831 17.2505 65.458 20.3253 65.458 24.1298C65.458 27.9343 62.3831 31.0091 58.5786 31.0091H51.6993V24.1298ZM48.2596 24.1298C48.2596 27.9343 45.1848 31.0091 41.3803 31.0091C37.5758 31.0091 34.501 27.9343 34.501 24.1298V6.87933C34.501 3.07485 37.5758 0 41.3803 0C45.1848 0 48.2596 3.07485 48.2596 6.87933V24.1298Z" fill="#2EB67D"/>
<path d="M41.3803 51.6986C45.1848 51.6986 48.2596 54.7734 48.2596 58.5779C48.2596 62.3824 45.1848 65.4572 41.3803 65.4572C37.5758 65.4572 34.501 62.3824 34.501 58.5779V51.6986H41.3803ZM41.3803 48.2589C37.5758 48.2589 34.501 45.1841 34.501 41.3796C34.501 37.5751 37.5758 34.5002 41.3803 34.5002H58.6308C62.4352 34.5002 65.5101 37.5751 65.5101 41.3796C65.5101 45.1841 62.4352 48.2589 58.6308 48.2589H41.3803Z" fill="#ECB22E"/>
</svg>
