<svg width="316" height="93" fill="none" xmlns="http://www.w3.org/2000/svg"><path d="M11.834 23.32C8.468 13.12 5.204 6.286.003.982V.78h38.144v.204c-4.997 5.712-6.629 13.26-2.346 24.478l16.625 45.998 15.502-42.326c4.794-12.75 2.856-23.356-4.385-28.15V.78h22.846v.204c-5.508 4.998-9.69 13.361-12.953 22.642l-24.478 67.11h-12.34L11.834 23.319ZM106.991 82.678c-3.468 4.997-9.281 9.587-17.135 9.587-7.445 0-13.87-3.774-13.87-12.24 0-13.258 16.726-18.97 30.597-21.927v-7.547c0-7.242-2.958-10.505-11.729-10.505-4.793 0-10.403 1.02-15.91 3.263l-.51-.918c5.915-7.24 15.4-13.564 28.761-13.564 13.259 0 19.072 6.323 19.072 16.012v31.413c0 2.958 1.326 5.508 5.304 5.508 1.325 0 3.059-.408 4.691-1.428l.204.51c-1.734 4.08-6.017 11.219-16.42 11.219-7.446 0-12.035-3.876-13.055-9.383Zm-.408-2.346V60.648c-8.67 2.345-13.36 7.241-13.36 12.952 0 4.794 2.855 7.956 8.158 7.956 2.04 0 3.774-.408 5.202-1.224ZM140.036 90.327v-.204c1.938-5.916 3.059-11.015 3.059-21.316l-.102-13.87c0-9.18-1.733-14.177-6.119-19.48v-.205l25.294-7.14v12.24l.51.102c3.263-5.304 9.689-11.73 20.602-11.73 10.811 0 18.358 6.63 18.358 17.033v22.846c0 10.403 1.02 15.4 2.958 21.418v.306h-25.6v-.204c1.938-5.916 2.958-11.423 2.958-21.214V46.98c0-5.303-2.55-9.077-8.465-9.077-4.488 0-8.466 2.652-10.811 6.017v24.886c0 10.199 1.02 15.299 2.957 21.316v.204h-25.599ZM215.713 75.13V33.416h-6.834v-1.122l25.192-15.808h1.326v14.177h14.584v2.651h-14.584v41.204c0 7.344 3.875 9.69 8.771 9.69 4.284 0 6.833-1.938 6.935-2.04l.408.408c-2.855 4.793-9.179 9.587-18.97 9.587-9.791 0-16.828-4.794-16.828-17.033ZM286.29 82.678c-3.468 4.997-9.281 9.587-17.135 9.587-7.445 0-13.87-3.774-13.87-12.24 0-13.258 16.726-18.97 30.597-21.927v-7.547c0-7.242-2.958-10.505-11.729-10.505-4.794 0-10.403 1.02-15.91 3.263l-.51-.816c5.915-7.24 15.4-13.564 28.761-13.564 13.259 0 19.072 6.323 19.072 16.012v31.413c0 2.958 1.326 5.508 5.304 5.508 1.325 0 3.059-.408 4.691-1.428l.204.51c-1.734 4.08-6.017 11.219-16.42 11.219-7.446-.102-12.035-3.978-13.055-9.485Zm-.408-2.346V60.648c-8.669 2.345-13.361 7.241-13.361 12.952 0 4.794 2.856 7.956 8.159 7.956 2.04 0 3.774-.408 5.202-1.224Z" fill="#222"/></svg>